<?xml version="1.0" standalone="no"?>
<!DOCTYPE svg PUBLIC "-//W3C//DTD SVG 20010904//EN"
 "http://www.w3.org/TR/2001/REC-SVG-20010904/DTD/svg10.dtd">
<svg version="1.0" xmlns="http://www.w3.org/2000/svg"
 width="420.000000pt" height="448.000000pt" viewBox="0 0 420.000000 448.000000"
 preserveAspectRatio="xMidYMid meet">
<metadata>
Created by potrace 1.15, written by Peter Selinger 2001-2017
</metadata>
<g transform="translate(0.000000,448.000000) scale(0.100000,-0.100000)"
fill="#000000" stroke="none">
<path d="M2015 4159 c-79 -13 -131 -37 -169 -80 -20 -21 -43 -39 -51 -39 -30
0 -65 -47 -65 -87 0 -41 15 -68 71 -124 65 -67 96 -226 86 -444 -13 -274 -46
-432 -147 -695 -138 -362 -164 -808 -65 -1136 8 -26 12 -51 9 -55 -12 -20
-194 63 -236 108 -31 33 -55 140 -69 313 -14 170 -2 360 31 511 22 96 31 128
96 309 82 234 116 481 95 702 -19 202 -42 256 -126 301 -35 19 -56 22 -162 22
-111 0 -124 -2 -150 -23 -41 -33 -118 -68 -201 -92 -40 -11 -75 -27 -78 -34
-7 -18 22 -85 38 -90 187 -57 216 -77 243 -168 18 -64 13 -116 -25 -228 -37
-109 -87 -203 -283 -523 -176 -287 -184 -319 -68 -267 24 11 44 20 46 20 2 0
-8 -33 -21 -74 -54 -171 -56 -305 -7 -443 24 -70 27 -92 28 -218 l1 -140 43
-93 c27 -60 41 -102 37 -115 -3 -12 -26 -47 -51 -77 -26 -30 -53 -67 -60 -81
-14 -26 -19 -27 -127 -34 -204 -12 -305 -32 -281 -56 19 -19 187 -39 478 -56
438 -26 2032 -26 2470 0 291 17 459 37 478 56 24 24 -77 44 -281 57 -108 6
-113 8 -127 33 -7 14 -36 54 -64 89 -28 35 -51 70 -51 79 0 8 19 56 43 107
l42 91 0 135 c0 124 3 142 30 220 28 78 30 95 29 210 -1 99 -6 139 -23 195
-12 39 -25 80 -28 93 l-5 22 43 -20 c87 -39 100 -19 49 75 -30 55 -42 75 -186
310 -222 360 -284 547 -223 672 26 54 55 74 149 103 89 28 111 46 113 91 2 34
1 34 -68 57 -128 41 -157 54 -193 86 l-35 31 -126 0 c-111 0 -131 -3 -168 -22
-98 -53 -118 -129 -118 -443 0 -281 14 -352 130 -670 35 -94 74 -269 84 -374
27 -273 -5 -582 -68 -649 -45 -49 -240 -133 -234 -102 1 6 10 46 21 90 92 364
56 765 -104 1172 -25 62 -56 162 -69 222 -28 128 -55 356 -55 468 0 166 50
356 100 383 33 18 60 70 60 117 0 33 -5 46 -26 62 -15 12 -33 21 -40 21 -7 0
-23 13 -35 29 -57 78 -217 117 -374 90z m-351 -2808 c43 -5 82 -13 86 -18 12
-12 50 -153 50 -185 l0 -28 -181 0 -181 0 26 45 c60 101 78 147 72 177 -5 28
-4 29 22 24 15 -4 62 -10 106 -15z m1021 -10 c-6 -30 18 -88 71 -173 13 -21
24 -40 24 -43 0 -3 -82 -5 -181 -5 l-182 0 7 48 c3 26 14 74 24 107 17 55 21
61 53 67 29 6 137 22 177 27 10 1 12 -7 7 -28z m-1540 -15 c20 -14 58 -32 85
-41 28 -9 50 -23 50 -31 0 -7 -14 -43 -32 -79 l-32 -65 -93 0 -92 0 41 76 c35
65 40 82 35 120 -2 24 -3 44 -1 44 2 0 19 -11 39 -24z m1969 -19 c-6 -43 11
-91 58 -159 10 -14 18 -29 18 -32 0 -3 -42 -6 -92 -6 l-93 0 -34 69 c-18 38
-31 73 -28 78 4 6 28 18 54 28 26 10 64 29 83 42 19 12 36 23 37 23 1 0 0 -19
-3 -43z m-975 -88 c31 -11 78 -79 64 -93 -11 -10 -181 -7 -188 4 -10 17 33 78
63 89 15 5 27 10 28 10 1 1 15 -4 33 -10z"/>
</g>
</svg>
